<svg xmlns="http://www.w3.org/2000/svg" xmlns:svg="http://www.w3.org/2000/svg" width="640" height="480">
<style>
path {
  fill: none;
  stroke: black;
  stroke-width: 30px;
  stroke-linejoin: round;
}
</style>
<path d="m349.70729,253.12173c0,92.56 -74.52392,167.59827 -166.45653,167.59827s-166.45088,-75.01566 -166.45088,-167.59827s74.52392,-167.59262 166.45088,-167.59262s166.45653,75.03261 166.45653,167.59262m182.60479,0c0,87.13392 -37.26478,157.76348 -83.22826,157.76348s-83.22826,-70.65218 -83.22826,-157.76348s37.26478,-157.76348 83.22826,-157.76348s83.22826,70.65218 83.22826,157.76348m74.68783,0c0,78.06783 -13.10739,141.34957 -29.27261,141.34957s-29.27261,-63.30435 -29.27261,-141.34957s13.10739,-141.34957 29.27826,-141.34957s29.26696,63.28739 29.26696,141.34957m459.39176,-153.06088l0.46348,-0.10174l0,-3.58913l-94.66261,0l-87.89696,206.58696l-87.89696,-206.58696l-102.01044,0l0,3.58913l0.45783,0.10174c17.2787,3.9 26.05087,9.71609 26.05087,30.69131l0,245.55871c0,20.97522 -8.80609,26.79131 -26.08478,30.69131l-0.45783,0.10174l0,3.60043l69.21087,0l0,-3.58913l-0.45783,-0.10174c-17.2787,-3.9 -26.05087,-9.71609 -26.05087,-30.69131l0,-231.32653l112.91348,265.70871l6.40391,0l116.20305,-273.11871l0,244.80131c-1.48087,16.56652 -10.17391,21.68174 -25.81913,25.21435l-0.46348,0.10739l0,3.56087l120.56087,0l0,-3.56087l-0.46348,-0.10739c-15.66217,-3.53261 -24.56435,-8.64783 -26.04522,-25.21435l-0.07913,-251.63479l0.07913,0c0,-20.97522 8.77217,-26.79131 26.04522,-30.69131m55.06913,162.66957c1.97261,-44.12087 17.81565,-75.96522 44.40348,-76.51348c8.2013,0.13565 15.08,2.82609 20.42696,8.00348c11.36087,11.02739 16.70217,34.07131 15.87696,68.51l-80.70739,0l-0.00001,0zm-1.19261,12.43478l141.30435,0l0,-0.59348c-0.4013,-33.73783 -10.17391,-59.98087 -29.01826,-78c-16.28957,-15.57174 -40.40739,-24.14044 -65.74044,-24.14044l-0.56522,0c-13.14696,0 -29.27261,3.18783 -40.74652,8.96435c-13.06217,6.04783 -24.58131,15.0913 -34.16739,26.96087c-15.43044,19.12131 -24.77913,44.96305 -27.05131,74.00392c-0.07348,0.87043 -0.13565,1.74087 -0.19783,2.6113s-0.10174,1.65043 -0.1413,2.4813a188.01392,188.01392 0 0 0 -0.20348,12.25957c1.53174,65.77435 37.06131,118.33957 100.16783,118.33957c55.39131,0 87.64826,-40.49218 95.69131,-94.84348l-4.06391,-1.43c-14.13044,29.21044 -39.5087,46.91305 -68.39131,44.75391c-39.42957,-2.95043 -69.63479,-42.92826 -66.89348,-91.35609m301.08566,89.12348c-4.63478,10.99348 -14.30565,17.04131 -27.26609,17.04131s-24.80739,-8.89652 -33.22348,-25.06174c-9.04348,-17.35217 -13.80261,-41.88261 -13.80261,-70.94044c0,-60.47826 18.81044,-99.59696 47.92478,-99.59696c12.19174,0 21.78913,6.04783 26.36739,16.60044l0,161.9574l0.00001,-0.00001zm93.73566,43.11478c-17.2787,-4.08652 -26.05087,-10.17391 -26.05087,-32.21739l0,-293.29132l-104.97783,30.9287l0,3.78696l0.64435,-0.05087c14.48087,-1.17 24.30435,0.83087 30.00739,6.0987c4.46522,4.12609 6.6413,10.45652 6.6413,19.36435l0,40.20957c-10.34913,-6.60739 -22.65957,-9.82348 -37.59826,-9.82348c-30.29565,0 -57.98565,12.75696 -77.95479,35.92522c-20.81696,24.14609 -31.82174,57.14348 -31.82174,95.41435c-0.00565,68.35174 33.64174,114.29261 83.72,114.29261c29.29522,0 52.86478,-16.05217 63.65479,-43.12609l0,36.34348l94.19348,0l0,-3.76435l-0.45783,-0.09043l0.00001,-0.00001zm90.03348,-285.62132c0,-21.34261 -16.09174,-37.44 -37.44,-37.44c-21.24652,0 -37.86957,16.44783 -37.86957,37.44s16.64,37.44 37.86957,37.44c21.34826,0 37.44,-16.09739 37.44,-37.44m24.77913,285.62132c-17.2787,-4.08652 -26.05087,-10.17391 -26.05087,-32.21739l-0.07348,0l0,-202.08218l-94.19913,27.04565l0,3.67391l0.56522,0.05087c20.38174,1.81435 25.96044,8.83435 25.96044,32.65261l0,174.73131l94.27826,0l0,-3.76435l-0.48043,-0.09043l-0.00001,0zm241.3761,0c-17.2787,-4.08652 -26.05087,-10.17391 -26.05087,-32.21739l0,-202.08218l-89.6887,26.15261l0,3.68522l0.5313,0.05652c16.66261,1.75217 21.47826,9.17348 21.47826,33.09913l0,127.73914c-5.55609,10.99348 -15.9787,17.52174 -28.60565,17.96261c-20.47783,0 -31.75391,-13.83087 -31.75391,-38.94348l0,-169.74609l-94.19913,27.04565l0,3.66826l0.56522,0.05087c20.38174,1.8087 25.96609,8.8287 25.96609,32.65261l0,108.10913a121.22783,121.22783 0 0 0 1.9613,22.50696l1.69565,7.37609c7.97522,28.57739 28.87131,43.52174 61.6087,43.52174c27.72957,0 52.03392,-17.16565 62.73913,-44.02478l0,37.30435l94.19913,0l0,-3.76435l-0.44652,-0.15261l0,-0.00001zm365.93871,3.85478l0,-3.77l-0.45783,-0.10739c-18.74826,-4.32391 -26.05087,-12.47435 -26.05087,-29.06913l0,-137.46088c0,-42.86044 -24.07261,-68.44218 -64.39522,-68.44218c-29.39131,0 -54.17609,16.98478 -63.71696,43.44261c-7.57957,-28.03478 -29.39131,-43.44261 -61.64261,-43.44261c-28.3287,0 -50.53044,14.95 -60.05435,40.20391l0,-39.49174l-94.19913,25.93783l0,3.69652l0.56522,0.05087c20.1387,1.78609 25.96044,9.00957 25.96044,32.21739l0,176.23479l87.89131,0l0,-3.76435l-0.46348,-0.11304c-14.95565,-3.51565 -19.78261,-9.92522 -19.78261,-26.37304l0,-157.56001c3.95652,-9.2413 11.93174,-20.18957 27.69565,-20.18957c19.57913,0 29.50435,13.56522 29.50435,40.2887l0,167.71131l87.91392,0l0,-3.76435l-0.46348,-0.11304c-14.95565,-3.51565 -19.78261,-9.92522 -19.78261,-26.37304l0,-140.17392a90.68913,90.68913 0 0 0 -1.24348,-15.64522c4.19391,-10.04391 12.62696,-21.93044 29.03522,-21.93044c19.85609,0 29.50435,13.17522 29.50435,40.2887l0,167.71131l94.18218,0l-0.00001,0.00001z" fill="black" id="svg_1"/>
</svg>