<?xml version="1.0" standalone="no"?>
<!DOCTYPE svg PUBLIC "-//W3C//DTD SVG 20010904//EN"
 "http://www.w3.org/TR/2001/REC-SVG-20010904/DTD/svg10.dtd">
<svg version="1.0" xmlns="http://www.w3.org/2000/svg"
 width="434.000000pt" height="434.000000pt" viewBox="0 0 434.000000 434.000000"
 preserveAspectRatio="xMidYMid meet">

<g transform="translate(0.000000,434.000000) scale(0.100000,-0.100000)"
fill="#000000" stroke="none">
<path d="M1030 3645 l0 -55 -55 0 -55 0 0 -55 0 -55 55 0 55 0 0 55 0 55 115
0 115 0 0 -55 0 -55 55 0 55 0 0 55 0 55 -55 0 -55 0 0 55 0 55 -115 0 -115 0
0 -55z"/>
<path d="M3080 3645 l0 -55 -55 0 -55 0 0 -55 0 -55 55 0 55 0 0 55 0 55 115
0 115 0 0 -55 0 -55 -53 0 c-30 0 -56 -2 -58 -4 -2 -2 -2 -29 -1 -60 l4 -56
54 0 54 0 0 60 0 60 55 0 55 0 0 55 0 55 -55 0 -55 0 0 55 0 55 -115 0 -115 0
0 -55z"/>
<path d="M1380 3418 l0 -58 55 0 55 0 0 -55 0 -55 55 0 55 0 0 55 0 55 -55 0
-55 0 0 54 0 54 -55 4 -55 3 0 -57z"/>
<path d="M2905 3472 l-50 -3 1 -52 2 -52 53 0 54 0 3 49 c2 27 0 52 -5 55 -4
3 -30 5 -58 3z"/>
<path d="M1032 3418 l3 -53 58 -3 57 -3 0 -54 0 -55 55 0 55 0 0 -54 0 -54 54
-4 54 -3 4 53 c2 30 1 56 -1 58 -2 2 -28 4 -58 4 l-53 0 0 55 0 55 -55 0 -55
0 0 55 0 55 -61 0 -60 0 3 -52z"/>
<path d="M2740 3305 l0 -55 -55 0 -55 0 0 -55 0 -55 55 0 55 0 0 55 0 55 55 0
55 0 0 55 0 55 -55 0 -55 0 0 -55z"/>
<path d="M3080 3305 l0 -55 -55 0 -55 0 0 -55 0 -55 55 0 55 0 0 55 0 55 55 0
55 0 0 55 0 55 -55 0 -55 0 0 -55z"/>
<path d="M240 3195 l0 -55 170 0 170 0 0 55 0 55 -170 0 -170 0 0 -55z"/>
<path d="M1604 3237 c-3 -8 -4 -34 -2 -58 3 -42 5 -44 37 -47 19 -2 45 -1 58
3 22 5 24 10 21 58 l-3 52 -53 3 c-38 2 -54 -1 -58 -11z"/>
<path d="M3768 3195 l-3 -55 170 0 170 0 -3 55 -4 55 -163 0 -163 0 -4 -55z"/>
<path d="M122 3078 l3 -53 53 -3 52 -3 0 55 0 56 -56 0 -55 0 3 -52z"/>
<path d="M580 3075 l0 -56 111 3 111 3 2 53 1 52 -112 0 -113 0 0 -55z"/>
<path d="M1380 3075 l0 -55 55 0 55 0 0 -115 0 -115 -55 0 -55 0 0 -55 0 -55
-60 0 -60 0 0 55 0 55 -55 0 -55 0 0 -55 0 -55 55 0 55 0 0 -55 0 -55 60 0 60
0 0 -60 0 -60 55 0 55 0 0 -55 0 -55 55 0 55 0 0 55 0 55 -55 0 -55 0 0 170 0
170 55 0 55 0 0 115 0 115 -55 0 -55 0 0 55 0 55 -55 0 -55 0 0 -55z"/>
<path d="M1720 3075 l0 -55 55 0 55 0 0 -55 0 -55 340 0 340 0 0 55 0 55 55 0
55 0 0 55 0 55 -55 0 -55 0 0 -55 0 -55 -340 0 -340 0 0 55 0 55 -55 0 -55 0
0 -55z"/>
<path d="M2850 3075 l0 -55 -55 0 -55 0 0 -115 0 -115 55 0 55 0 0 -78 c0 -44
3 -120 7 -171 l6 -92 51 3 51 3 3 58 3 57 54 0 55 0 0 55 0 55 55 0 55 0 0 55
0 55 -55 0 -55 0 0 -55 0 -55 -55 0 -55 0 0 55 0 55 -60 0 -60 0 0 115 0 115
60 0 60 0 0 55 0 55 -60 0 -60 0 0 -55z"/>
<path d="M3540 3075 l0 -55 110 0 110 0 0 55 0 55 -110 0 -110 0 0 -55z"/>
<path d="M4110 3075 l0 -55 55 0 55 0 0 -455 0 -455 -55 0 -55 0 0 -115 0
-115 -60 0 -60 0 0 -110 0 -110 55 0 54 0 3 108 3 107 58 3 57 3 0 114 0 115
55 0 55 0 0 455 0 455 -55 0 -55 0 0 55 0 55 -55 0 -55 0 0 -55z"/>
<path d="M10 2565 l0 -455 55 0 54 0 3 -112 3 -113 53 -3 52 -3 0 115 0 116
-55 0 -55 0 0 455 0 455 -55 0 -55 0 0 -455z"/>
<path d="M810 2965 l0 -55 110 0 110 0 0 55 0 55 -110 0 -110 0 0 -55z"/>
<path d="M3310 2965 l0 -55 110 0 110 0 0 55 0 55 -110 0 -110 0 0 -55z"/>
<path d="M1040 2853 l0 -58 55 3 56 4 -3 51 -3 52 -52 3 -53 3 0 -58z"/>
<path d="M3200 2856 l0 -56 56 0 55 0 -3 53 -3 52 -52 3 -53 3 0 -55z"/>
<path d="M2113 2783 c31 -2 83 -2 115 0 31 2 5 3 -58 3 -63 0 -89 -1 -57 -3z"/>
<path d="M1720 2565 l0 -115 55 0 55 0 0 115 0 115 -55 0 -55 0 0 -115z"/>
<path d="M2512 2568 l3 -113 51 -3 51 -3 6 83 c4 46 7 98 7 116 l0 32 -60 0
-61 0 3 -112z"/>
<path d="M690 2340 l0 -230 55 0 54 0 3 113 3 112 58 3 57 3 0 -56 0 -55 55 0
54 0 3 -57 3 -58 58 -3 57 -3 0 -55 0 -55 58 3 57 3 0 50 0 50 -57 3 -58 3 0
59 0 60 -55 0 -55 0 0 55 0 55 -60 0 -59 0 -3 58 -3 57 -53 0 -52 0 0 58 0 57
-60 0 -60 0 0 -230z"/>
<path d="M3537 2563 c-4 -3 -7 -28 -7 -54 l0 -48 -52 -3 -53 -3 -3 -57 -3 -57
-57 -3 -56 -3 3 -52 2 -52 -58 -3 -58 -3 -3 -57 -3 -58 -54 0 -55 0 0 -55 0
-54 -57 -3 -58 -3 -3 -52 -3 -52 -52 -3 -52 -3 -3 -57 -3 -58 -54 0 -55 0 0
-55 0 -54 -57 -3 -58 -3 -5 -55 -5 -55 -50 0 -50 0 -3 -57 -3 -58 -339 0 -340
0 0 61 0 60 -52 -3 -53 -3 -3 -57 -3 -58 55 0 55 0 3 -55 3 -56 338 -2 337 -2
0 58 0 57 60 0 60 0 0 55 0 55 55 0 55 0 0 60 0 60 55 0 55 0 0 55 0 55 60 0
60 0 0 55 0 55 55 0 55 0 0 60 0 60 55 0 55 0 0 55 0 55 60 0 60 0 0 61 0 61
55 -4 55 -3 0 58 0 57 60 0 60 0 0 -115 0 -115 -60 0 -60 0 0 -55 0 -55 -55 0
-55 0 0 -115 0 -115 -55 0 -55 0 0 -115 0 -115 55 0 55 0 0 115 0 115 55 0 55
0 0 115 0 115 60 0 60 0 0 55 0 55 55 0 55 0 0 230 0 230 -53 0 c-30 0 -57 -3
-60 -7z"/>
<path d="M2740 2395 l0 -55 -170 0 -170 0 0 -55 0 -55 55 0 55 0 0 -60 0 -60
-55 0 -55 0 0 54 0 54 -110 7 c-61 4 -164 4 -230 0 l-120 -7 0 61 0 61 -167
-2 -168 -3 -3 -52 -3 -52 58 -3 58 -3 3 -57 3 -58 54 0 55 0 0 -53 0 -54 170
-6 c94 -4 247 -4 340 0 l170 6 0 54 0 53 55 0 54 0 3 58 3 57 58 3 57 3 0 54
0 55 55 0 55 0 0 55 0 55 -55 0 -55 0 0 -55z m-800 -216 c3 -26 4 -52 2 -58
-2 -6 -27 -11 -58 -11 l-54 0 0 61 0 60 53 -3 52 -3 5 -46z"/>
<path d="M810 2055 l0 -55 55 0 55 0 0 -115 0 -115 55 0 55 0 0 115 0 115 -55
0 -55 0 0 55 0 55 -55 0 -55 0 0 -55z"/>
<path d="M1260 1940 l0 -60 60 0 60 0 0 -55 0 -55 55 0 55 0 0 -55 0 -55 55 0
55 0 0 -60 0 -60 60 0 60 0 0 60 0 60 -55 0 -55 0 0 55 0 55 -60 0 -60 0 0 60
0 60 -55 0 -55 0 0 55 0 55 -60 0 -60 0 0 -60z"/>
<path d="M240 1770 l0 -110 55 0 55 0 0 110 0 110 -55 0 -55 0 0 -110z"/>
<path d="M1035 1748 c-3 -13 -5 -63 -3 -113 l3 -90 58 -3 57 -3 0 -114 0 -115
55 0 55 0 0 -55 0 -55 55 0 54 0 3 -57 3 -58 58 -3 57 -3 0 -54 0 -55 55 0 55
0 0 -55 0 -55 55 0 55 0 0 -54 0 -53 -82 -6 c-46 -4 -120 -7 -165 -7 l-83 0 0
-55 0 -55 225 0 225 0 0 115 0 115 -55 0 -55 0 0 55 0 55 -60 0 -60 0 0 60 0
60 -55 0 -55 0 0 55 0 55 -60 0 -60 0 0 55 0 55 -55 0 -55 0 0 115 0 115 -55
0 -55 0 0 115 0 115 -55 0 c-48 0 -55 -3 -60 -22z"/>
<path d="M363 1653 c-8 -3 -13 -25 -13 -59 l0 -54 55 0 55 0 0 60 0 60 -42 -1
c-24 0 -49 -3 -55 -6z"/>
<path d="M3880 1601 l0 -61 -60 0 -60 0 0 -55 0 -55 -55 0 -56 0 3 -56 3 -56
53 -2 52 -1 0 58 0 57 60 0 60 0 0 55 0 55 55 0 56 0 -3 58 -3 57 -52 3 -53 3
0 -60z"/>
<path d="M470 1485 l0 -55 55 0 55 0 0 -57 0 -58 52 0 53 0 3 -57 3 -58 59 0
60 0 0 -55 0 -55 55 0 55 0 0 -60 0 -60 55 0 55 0 0 -55 0 -55 60 0 60 0 0
-55 0 -55 110 0 110 0 0 55 0 55 -110 0 -110 0 0 55 0 55 -60 0 -60 0 0 60 0
60 -55 0 -55 0 0 55 0 55 -55 0 -55 0 0 55 0 55 -60 0 -60 0 0 60 0 60 -55 0
-55 0 0 55 0 55 -55 0 -55 0 0 -55z"/>
<path d="M3080 1425 l0 -115 -55 0 -55 0 0 -55 0 -55 -54 0 -55 0 -3 -52 -3
-53 -55 -5 -55 -5 -3 -57 -3 -58 -114 0 -115 0 0 -55 0 -55 -55 0 -55 0 0
-115 0 -115 285 0 285 0 0 55 0 55 -87 0 c-49 0 -125 3 -170 7 l-83 6 0 53 0
54 55 0 55 0 0 55 0 54 58 3 57 3 3 52 3 52 52 3 52 3 3 58 3 57 54 0 55 0 0
55 0 55 55 0 55 0 0 115 0 115 -55 0 -55 0 0 -115z"/>
<path d="M3540 1255 l0 -55 -60 0 -60 0 0 -55 0 -55 -55 0 -55 0 0 -60 0 -60
-55 0 -55 0 0 -55 0 -55 55 0 55 0 0 55 0 55 55 0 55 0 0 60 0 60 60 0 60 0 0
55 0 55 55 0 55 0 0 55 0 55 -55 0 -55 0 0 -55z"/>
<path d="M2970 805 l0 -55 110 0 110 0 0 55 0 55 -110 0 -110 0 0 -55z"/>
</g>
</svg>
